<svg width="813" height="416" viewBox="0 0 813 416" fill="none" xmlns="http://www.w3.org/2000/svg">
<path d="M308.91 370.672H311.93L321.47 385.972V370.672H323.9V389.562H321.03L311.35 374.272V389.562H308.91V370.672Z" fill="white"/>
<path d="M330.702 370.672V382.342C330.702 383.712 330.962 384.852 331.472 385.762C332.232 387.132 333.522 387.822 335.332 387.822C337.502 387.822 338.972 387.082 339.752 385.602C340.172 384.792 340.382 383.712 340.382 382.352V370.682H342.982V381.292C342.982 383.612 342.672 385.402 342.042 386.652C340.892 388.932 338.722 390.072 335.532 390.072C332.342 390.072 330.182 388.932 329.042 386.652C328.412 385.402 328.102 383.612 328.102 381.292V370.682H330.702V370.672Z" fill="white"/>
<path d="M346.871 370.672H350.531L355.961 386.642L361.351 370.672H364.981V389.562H362.551V378.412C362.551 378.022 362.561 377.392 362.581 376.492C362.601 375.602 362.611 374.642 362.611 373.622L357.221 389.552H354.691L349.261 373.622V374.202C349.261 374.662 349.271 375.372 349.291 376.322C349.311 377.272 349.321 377.962 349.321 378.412V389.562H346.881V370.672H346.871Z" fill="white"/>
<path d="M369.449 370.672H372.029V389.562H369.449V370.672Z" fill="white"/>
<path d="M377.861 383.458C377.921 384.528 378.171 385.398 378.621 386.068C379.471 387.318 380.961 387.948 383.111 387.948C384.071 387.948 384.941 387.808 385.731 387.538C387.261 387.008 388.021 386.058 388.021 384.688C388.021 383.658 387.701 382.927 387.061 382.487C386.411 382.057 385.391 381.687 384.001 381.367L381.441 380.788C379.771 380.408 378.591 379.998 377.891 379.538C376.691 378.748 376.091 377.567 376.091 375.997C376.091 374.297 376.681 372.908 377.851 371.818C379.021 370.728 380.691 370.188 382.841 370.188C384.821 370.188 386.501 370.667 387.891 371.617C389.271 372.577 389.971 374.098 389.971 376.198H387.571C387.441 375.188 387.171 374.407 386.751 373.867C385.971 372.877 384.651 372.388 382.781 372.388C381.271 372.388 380.191 372.708 379.531 373.338C378.871 373.968 378.541 374.707 378.541 375.547C378.541 376.477 378.931 377.148 379.701 377.578C380.211 377.848 381.351 378.198 383.131 378.608L385.781 379.208C387.061 379.498 388.041 379.898 388.741 380.408C389.941 381.288 390.541 382.577 390.541 384.247C390.541 386.337 389.781 387.837 388.261 388.737C386.741 389.637 384.971 390.088 382.961 390.088C380.611 390.088 378.771 389.488 377.441 388.288C376.111 387.098 375.461 385.477 375.481 383.438H377.861V383.458Z" fill="white"/>
<path d="M393.691 370.672H397.351L402.781 386.642L408.171 370.672H411.801V389.562H409.371V378.412C409.371 378.022 409.381 377.392 409.401 376.492C409.421 375.602 409.431 374.642 409.431 373.622L404.041 389.552H401.511L396.081 373.622V374.202C396.081 374.662 396.091 375.372 396.111 376.322C396.131 377.272 396.141 377.962 396.141 378.412V389.562H393.701V370.672H393.691Z" fill="white"/>
<path d="M421.18 370.672H424.07L430.92 389.562H428.12L426.2 383.902H418.73L416.69 389.562H414.07L421.18 370.672ZM425.38 381.822L422.51 373.482L419.46 381.822H425.38Z" fill="white"/>
<path d="M445.049 370.672V372.922H438.689V389.562H436.089V372.922H429.719V370.672H445.049Z" fill="white"/>
<path d="M447.969 370.672H450.549V389.562H447.969V370.672Z" fill="white"/>
<path d="M468.229 372.048C469.549 373.308 470.279 374.738 470.429 376.338H467.939C467.659 375.118 467.089 374.158 466.249 373.448C465.409 372.738 464.219 372.378 462.699 372.378C460.839 372.378 459.339 373.028 458.189 374.338C457.049 375.648 456.469 377.648 456.469 380.348C456.469 382.558 456.989 384.348 458.019 385.728C459.049 387.108 460.589 387.788 462.639 387.788C464.529 387.788 465.959 387.068 466.949 385.618C467.469 384.858 467.859 383.848 468.119 382.608H470.609C470.389 384.598 469.649 386.268 468.399 387.608C466.899 389.228 464.879 390.038 462.329 390.038C460.139 390.038 458.289 389.378 456.799 388.048C454.839 386.288 453.859 383.578 453.859 379.908C453.859 377.118 454.599 374.838 456.069 373.058C457.659 371.118 459.859 370.148 462.669 370.148C465.059 370.158 466.909 370.788 468.229 372.048Z" fill="white"/>
<path d="M485.09 370.672H487.98L494.831 389.562H492.031L490.11 383.902H482.641L480.6 389.562H477.98L485.09 370.672ZM489.291 381.822L486.421 373.482L483.37 381.822H489.291Z" fill="white"/>
<path d="M499.94 370.672V382.342C499.94 383.712 500.2 384.852 500.71 385.762C501.47 387.132 502.76 387.822 504.57 387.822C506.74 387.822 508.21 387.082 508.99 385.602C509.41 384.792 509.62 383.712 509.62 382.352V370.682H512.22V381.292C512.22 383.612 511.91 385.402 511.28 386.652C510.13 388.932 507.96 390.072 504.77 390.072C501.58 390.072 499.42 388.932 498.28 386.652C497.65 385.402 497.34 383.612 497.34 381.292V370.682H499.94V370.672Z" fill="white"/>
<path d="M529.92 370.672V372.922H523.56V389.562H520.96V372.922H514.59V370.672H529.92Z" fill="white"/>
<path d="M532.332 370.672H534.912V378.472H544.732V370.672H547.312V389.562H544.732V380.732H534.912V389.562H532.332V370.672Z" fill="white"/>
<path d="M551.52 370.672H565.29V372.982H554.01V378.712H564.44V380.902H554.01V387.302H565.479V389.552H551.52V370.672Z" fill="white"/>
<path d="M568.84 370.672H571.86L581.4 385.972V370.672H583.83V389.562H580.96L571.28 374.272V389.562H568.84V370.672Z" fill="white"/>
<path d="M601.599 370.672V372.922H595.24V389.562H592.64V372.922H586.27V370.672H601.599Z" fill="white"/>
<path d="M604.52 370.672H607.099V389.562H604.52V370.672Z" fill="white"/>
<path d="M624.792 372.048C626.112 373.308 626.842 374.738 626.992 376.338H624.502C624.222 375.118 623.652 374.158 622.812 373.448C621.972 372.738 620.782 372.378 619.262 372.378C617.402 372.378 615.902 373.028 614.752 374.338C613.612 375.648 613.032 377.648 613.032 380.348C613.032 382.558 613.552 384.348 614.582 385.728C615.612 387.108 617.152 387.788 619.202 387.788C621.092 387.788 622.522 387.068 623.512 385.618C624.032 384.858 624.422 383.848 624.682 382.608H627.172C626.952 384.598 626.212 386.268 624.962 387.608C623.462 389.228 621.442 390.038 618.892 390.038C616.702 390.038 614.852 389.378 613.362 388.048C611.402 386.288 610.422 383.578 610.422 379.908C610.422 377.118 611.162 374.838 612.632 373.058C614.222 371.118 616.422 370.148 619.232 370.148C621.612 370.158 623.472 370.788 624.792 372.048Z" fill="white"/>
<path d="M651.12 372.048C652.44 373.308 653.17 374.738 653.32 376.338H650.83C650.55 375.118 649.98 374.158 649.14 373.448C648.3 372.738 647.11 372.378 645.59 372.378C643.73 372.378 642.23 373.028 641.08 374.338C639.94 375.648 639.36 377.648 639.36 380.348C639.36 382.558 639.88 384.348 640.91 385.728C641.94 387.108 643.48 387.788 645.53 387.788C647.42 387.788 648.85 387.068 649.84 385.618C650.36 384.858 650.75 383.848 651.01 382.608H653.5C653.28 384.598 652.54 386.268 651.29 387.608C649.79 389.228 647.77 390.038 645.22 390.038C643.03 390.038 641.18 389.378 639.69 388.048C637.73 386.288 636.75 383.578 636.75 379.908C636.75 377.118 637.49 374.838 638.96 373.058C640.55 371.118 642.75 370.148 645.56 370.148C647.94 370.158 649.8 370.788 651.12 372.048Z" fill="white"/>
<path d="M672.171 373.368C673.421 375.038 674.051 377.178 674.051 379.788C674.051 382.608 673.331 384.948 671.901 386.818C670.221 389.008 667.821 390.108 664.711 390.108C661.801 390.108 659.521 389.148 657.861 387.228C656.381 385.378 655.641 383.038 655.641 380.208C655.641 377.658 656.271 375.468 657.541 373.648C659.171 371.318 661.581 370.148 664.771 370.148C668.091 370.158 670.561 371.228 672.171 373.368ZM669.911 385.398C670.921 383.778 671.421 381.928 671.421 379.828C671.421 377.608 670.841 375.818 669.681 374.468C668.521 373.118 666.931 372.438 664.921 372.438C662.971 372.438 661.371 373.108 660.141 374.448C658.911 375.788 658.291 377.768 658.291 380.378C658.291 382.468 658.821 384.238 659.881 385.668C660.941 387.108 662.661 387.818 665.031 387.818C667.271 387.818 668.901 387.008 669.911 385.398Z" fill="white"/>
<path d="M677.09 370.672H679.65V387.312H689.22V389.562H677.1V370.672H677.09Z" fill="white"/>
<path d="M691.73 370.672H694.291V387.312H703.86V389.562H691.74V370.672H691.73Z" fill="white"/>
<path d="M706.621 370.672H720.391V372.982H709.111V378.712H719.541V380.902H709.111V387.302H720.581V389.552H706.621V370.672Z" fill="white"/>
<path d="M737.472 372.048C738.792 373.308 739.522 374.738 739.672 376.338H737.182C736.902 375.118 736.332 374.158 735.492 373.448C734.652 372.738 733.462 372.378 731.942 372.378C730.082 372.378 728.582 373.028 727.432 374.338C726.292 375.648 725.712 377.648 725.712 380.348C725.712 382.558 726.232 384.348 727.262 385.728C728.292 387.108 729.832 387.788 731.882 387.788C733.772 387.788 735.202 387.068 736.192 385.618C736.712 384.858 737.102 383.848 737.362 382.608H739.852C739.632 384.598 738.892 386.268 737.642 387.608C736.142 389.228 734.122 390.038 731.572 390.038C729.382 390.038 727.532 389.378 726.042 388.048C724.082 386.288 723.102 383.578 723.102 379.908C723.102 377.118 723.842 374.838 725.312 373.058C726.902 371.118 729.102 370.148 731.912 370.148C734.292 370.158 736.152 370.788 737.472 372.048Z" fill="white"/>
<path d="M756.701 370.672V372.922H750.341V389.562H747.741V372.922H741.371V370.672H756.701Z" fill="white"/>
<path d="M759.621 370.672H762.201V389.562H759.621V370.672Z" fill="white"/>
<path d="M766.291 370.672H774.401C776.611 370.672 778.181 371.332 779.121 372.652C779.671 373.432 779.941 374.332 779.941 375.352C779.941 376.542 779.601 377.522 778.921 378.282C778.571 378.682 778.061 379.052 777.401 379.392C778.371 379.762 779.091 380.172 779.571 380.642C780.421 381.462 780.841 382.602 780.841 384.052C780.841 385.272 780.461 386.372 779.701 387.352C778.561 388.822 776.751 389.562 774.261 389.562H766.281V370.672H766.291ZM773.461 378.662C774.541 378.662 775.381 378.512 775.981 378.212C776.921 377.742 777.391 376.892 777.391 375.672C777.391 374.442 776.891 373.602 775.891 373.172C775.321 372.932 774.481 372.812 773.371 372.812H768.811V378.662H773.461ZM774.321 387.372C775.891 387.372 777.011 386.922 777.681 386.012C778.101 385.442 778.311 384.742 778.311 383.932C778.311 382.562 777.701 381.622 776.471 381.132C775.821 380.862 774.961 380.732 773.891 380.732H768.811V387.382H774.321V387.372Z" fill="white"/>
<path d="M783.922 370.672H786.482V387.312H796.052V389.562H783.932V370.672H783.922Z" fill="white"/>
<path d="M798.809 370.672H812.579V372.982H801.299V378.712H811.729V380.902H801.299V387.302H812.769V389.552H798.809V370.672Z" fill="white"/>
<path d="M811.729 351.586H307.699V353.586H811.729V351.586Z" fill="white"/>
<path d="M811.729 404.234H307.699V406.234H811.729V404.234Z" fill="white"/>
<path d="M467.809 326.692H418.369L344.349 191.202V326.692H314.109V170.172H367.299L437.569 298.732V170.172H467.809V326.692Z" fill="white"/>
<path d="M666.489 326.69H633.339L620.629 298.11H530.399L517.699 326.69H484.539L554.129 170.18H596.909L666.489 326.69ZM575.519 196.64L540.859 274.57H610.189L575.519 196.64Z" fill="white"/>
<path d="M695.921 273.192C695.921 285.992 706.341 296.412 719.151 296.412H806.401V326.692H719.151C689.651 326.692 665.641 302.702 665.641 273.192V223.682C665.641 194.182 689.641 170.172 719.151 170.172H806.401V200.452H719.151C706.341 200.452 695.921 210.872 695.921 223.682V273.192Z" fill="white"/>
<path d="M333.77 49.4191C333.77 49.4191 346.91 -3.15089 208.98 0.149108C71.0402 3.44911 25.0703 32.9791 25.0703 32.9791C27.8003 51.7491 31.2003 69.6091 35.1803 86.6291C54.4203 72.5291 87.6403 54.5591 136.26 49.4991C130.47 50.9991 72.4303 66.7791 45.3003 124.099C58.1003 165.899 74.5302 201.799 92.7302 232.489C96.9802 214.069 107.24 182.389 131.75 149.179C131.08 150.389 106.47 195.479 113.99 265.059C189.89 370.889 282.84 400.809 282.84 400.809C147.78 207.049 268.13 137.089 322.26 134.789C389.77 131.919 405.98 152.879 405.98 152.879C433.92 72.4091 333.77 49.4191 333.77 49.4191ZM274.64 75.2691C264.14 74.0591 241.7 59.7191 240.99 59.2691C265.62 66.6491 301.74 65.0091 301.74 65.0091C301.74 65.0091 285.32 76.5091 274.64 75.2691Z" fill="url(#paint0_linear_653_46)"/>
<path d="M405.949 152.831C404.989 151.681 387.789 131.991 322.269 134.781C268.129 137.081 147.789 207.041 282.839 400.801C282.839 400.801 228.929 383.441 169.659 328.421C148.819 227.381 202.879 126.461 295.559 117.151C390.199 107.661 405.409 151.111 405.949 152.831Z" fill="url(#paint1_linear_653_46)"/>
<path d="M109.069 342.157L133.909 354.847L157.679 340.227L153.279 367.777L174.529 385.857L146.969 390.197L136.339 415.987L123.699 391.117L95.8789 388.977L115.629 369.267L109.069 342.157Z" fill="url(#paint2_linear_653_46)"/>
<path d="M60.1107 288.94L78.6007 298.38L96.2908 287.5L93.0208 308.01L108.831 321.46L88.3208 324.69L80.4108 343.89L71.0007 325.38L50.3008 323.78L65.0007 309.12L60.1107 288.94Z" fill="url(#paint3_linear_653_46)"/>
<path d="M33.4698 235.469L44.7499 244.979L58.7299 240.289L53.1699 253.949L61.95 265.799L47.2399 264.729L38.6899 276.739L35.1499 262.429L21.0898 257.999L33.6099 250.219L33.4698 235.469Z" fill="url(#paint4_linear_653_46)"/>
<path d="M14.14 174.172L24.62 184.542L38.9301 180.982L32.3101 194.152L40.11 206.662L25.54 204.432L16.0601 215.722L13.67 201.172L0 195.642L13.1 188.882L14.14 174.172Z" fill="url(#paint5_linear_653_46)"/>
<defs>
<linearGradient id="paint0_linear_653_46" x1="422.352" y1="608.901" x2="134.243" y2="-114.142" gradientUnits="userSpaceOnUse">
<stop stop-color="#EDCF89"/>
<stop offset="0.1317" stop-color="#E2BB6D"/>
<stop offset="0.2527" stop-color="#DAAD57"/>
<stop offset="0.3254" stop-color="#D8A84F"/>
<stop offset="0.3273" stop-color="#D8A950"/>
<stop offset="0.3748" stop-color="#E8C067"/>
<stop offset="0.4234" stop-color="#F4D278"/>
<stop offset="0.4733" stop-color="#FBDD82"/>
<stop offset="0.5265" stop-color="#FFE186"/>
<stop offset="0.546" stop-color="#F9DB80"/>
<stop offset="0.683" stop-color="#E1B65B"/>
<stop offset="0.8088" stop-color="#D19F43"/>
<stop offset="0.9186" stop-color="#C99237"/>
<stop offset="1" stop-color="#C68D33"/>
</linearGradient>
<linearGradient id="paint1_linear_653_46" x1="254.404" y1="415.054" x2="315.35" y2="16.1391" gradientUnits="userSpaceOnUse">
<stop stop-color="#EDCF89" stop-opacity="0"/>
<stop offset="0.2177" stop-color="#E0BB70" stop-opacity="0.2177"/>
<stop offset="0.5634" stop-color="#D1A14C" stop-opacity="0.5634"/>
<stop offset="0.8361" stop-color="#C99239" stop-opacity="0.8361"/>
<stop offset="1" stop-color="#C68D33"/>
</linearGradient>
<linearGradient id="paint2_linear_653_46" x1="634.3" y1="560.285" x2="-116.62" y2="279.375" gradientUnits="userSpaceOnUse">
<stop stop-color="#EDCF89"/>
<stop offset="0.1317" stop-color="#E2BB6D"/>
<stop offset="0.2527" stop-color="#DAAD57"/>
<stop offset="0.3254" stop-color="#D8A84F"/>
<stop offset="0.3273" stop-color="#D8A950"/>
<stop offset="0.3748" stop-color="#E8C067"/>
<stop offset="0.4234" stop-color="#F4D278"/>
<stop offset="0.4733" stop-color="#FBDD82"/>
<stop offset="0.5265" stop-color="#FFE186"/>
<stop offset="0.546" stop-color="#F9DB80"/>
<stop offset="0.683" stop-color="#E1B65B"/>
<stop offset="0.8088" stop-color="#D19F43"/>
<stop offset="0.9186" stop-color="#C99237"/>
<stop offset="1" stop-color="#C68D33"/>
</linearGradient>
<linearGradient id="paint3_linear_653_46" x1="542.765" y1="485.575" x2="-208.159" y2="204.665" gradientUnits="userSpaceOnUse">
<stop stop-color="#EDCF89"/>
<stop offset="0.1317" stop-color="#E2BB6D"/>
<stop offset="0.2527" stop-color="#DAAD57"/>
<stop offset="0.3254" stop-color="#D8A84F"/>
<stop offset="0.3273" stop-color="#D8A950"/>
<stop offset="0.3748" stop-color="#E8C067"/>
<stop offset="0.4234" stop-color="#F4D278"/>
<stop offset="0.4733" stop-color="#FBDD82"/>
<stop offset="0.5265" stop-color="#FFE186"/>
<stop offset="0.546" stop-color="#F9DB80"/>
<stop offset="0.683" stop-color="#E1B65B"/>
<stop offset="0.8088" stop-color="#D19F43"/>
<stop offset="0.9186" stop-color="#C99237"/>
<stop offset="1" stop-color="#C68D33"/>
</linearGradient>
<linearGradient id="paint4_linear_653_46" x1="396.183" y1="489.25" x2="-271.74" y2="45.8199" gradientUnits="userSpaceOnUse">
<stop stop-color="#EDCF89"/>
<stop offset="0.1317" stop-color="#E2BB6D"/>
<stop offset="0.2527" stop-color="#DAAD57"/>
<stop offset="0.3254" stop-color="#D8A84F"/>
<stop offset="0.3273" stop-color="#D8A950"/>
<stop offset="0.3748" stop-color="#E8C067"/>
<stop offset="0.4234" stop-color="#F4D278"/>
<stop offset="0.4733" stop-color="#FBDD82"/>
<stop offset="0.5265" stop-color="#FFE186"/>
<stop offset="0.546" stop-color="#F9DB80"/>
<stop offset="0.683" stop-color="#E1B65B"/>
<stop offset="0.8088" stop-color="#D19F43"/>
<stop offset="0.9186" stop-color="#C99237"/>
<stop offset="1" stop-color="#C68D33"/>
</linearGradient>
<linearGradient id="paint5_linear_653_46" x1="355.592" y1="456.041" x2="-274.955" y2="-39.1008" gradientUnits="userSpaceOnUse">
<stop stop-color="#EDCF89"/>
<stop offset="0.1317" stop-color="#E2BB6D"/>
<stop offset="0.2527" stop-color="#DAAD57"/>
<stop offset="0.3254" stop-color="#D8A84F"/>
<stop offset="0.3273" stop-color="#D8A950"/>
<stop offset="0.3748" stop-color="#E8C067"/>
<stop offset="0.4234" stop-color="#F4D278"/>
<stop offset="0.4733" stop-color="#FBDD82"/>
<stop offset="0.5265" stop-color="#FFE186"/>
<stop offset="0.546" stop-color="#F9DB80"/>
<stop offset="0.683" stop-color="#E1B65B"/>
<stop offset="0.8088" stop-color="#D19F43"/>
<stop offset="0.9186" stop-color="#C99237"/>
<stop offset="1" stop-color="#C68D33"/>
</linearGradient>
</defs>
</svg>
